<?xml version="1.0" encoding="UTF-8" standalone="no"?><!DOCTYPE svg PUBLIC "-//W3C//DTD SVG 1.1//EN" "http://www.w3.org/Graphics/SVG/1.1/DTD/svg11.dtd"><svg width="100%" height="100%" viewBox="0 0 750 500" version="1.1" xmlns="http://www.w3.org/2000/svg" xmlns:xlink="http://www.w3.org/1999/xlink" xml:space="preserve" xmlns:serif="http://www.serif.com/" style="fill-rule:evenodd;clip-rule:evenodd;stroke-linejoin:round;stroke-miterlimit:2;"><path d="M436.7,143.902c0.201,-0.407 0.41,-0.809 0.627,-1.208c0.216,-0.399 0.44,-0.794 0.67,-1.184c0.231,-0.391 0.469,-0.778 0.714,-1.16c0.245,-0.382 0.496,-0.759 0.754,-1.132c0.259,-0.373 0.524,-0.741 0.797,-1.104c0.271,-0.363 0.55,-0.721 0.835,-1.074c0.285,-0.353 0.576,-0.701 0.874,-1.044c0.298,-0.342 0.601,-0.679 0.911,-1.01c0.31,-0.331 0.626,-0.657 0.948,-0.977c0.322,-0.32 0.649,-0.634 0.983,-0.942c0.333,-0.308 0.672,-0.609 1.016,-0.905c0.344,-0.295 0.694,-0.584 1.049,-0.867c0.354,-0.283 0.714,-0.559 1.079,-0.829c0.365,-0.27 0.735,-0.533 1.109,-0.789c0.375,-0.256 0.754,-0.506 1.137,-0.748c0.384,-0.242 0.771,-0.478 1.164,-0.706c0.25,-0.147 0.501,-0.292 0.755,-0.432c0.254,-0.141 0.509,-0.279 0.766,-0.413c0.258,-0.135 0.516,-0.266 0.777,-0.394c0.26,-0.128 0.522,-0.252 0.786,-0.374c0.264,-0.121 0.529,-0.238 0.796,-0.353c0.266,-0.115 0.534,-0.226 0.804,-0.333c0.269,-0.108 0.54,-0.212 0.812,-0.313c0.272,-0.101 0.546,-0.199 0.82,-0.292c0.274,-0.094 0.55,-0.185 0.827,-0.272c0.277,-0.087 0.555,-0.17 0.834,-0.25c0.279,-0.08 0.559,-0.156 0.84,-0.229c0.281,-0.073 0.562,-0.142 0.845,-0.208c0.283,-0.066 0.566,-0.128 0.851,-0.186c0.284,-0.059 0.569,-0.114 0.854,-0.165c0.286,-0.051 0.572,-0.099 0.859,-0.143c0.287,-0.044 0.574,-0.084 0.862,-0.121c0.288,-0.037 0.576,-0.07 0.865,-0.099c0.288,-0.03 0.577,-0.056 0.867,-0.078c0.289,-0.022 0.578,-0.04 0.868,-0.055c0.29,-0.015 0.58,-0.026 0.87,-0.033c0.29,-0.008 0.58,-0.012 0.871,-0.012c0.29,0 0.58,0.004 0.87,0.011c0.29,0.007 0.58,0.018 0.87,0.033c0.29,0.015 0.579,0.033 0.869,0.055c0.289,0.022 0.578,0.047 0.867,0.077c0.288,0.029 0.577,0.062 0.865,0.098c0.288,0.037 0.575,0.077 0.862,0.121c0.287,0.044 0.573,0.091 0.859,0.142c0.285,0.052 0.57,0.106 0.854,0.165c0.285,0.058 0.568,0.12 0.851,0.185c0.283,0.066 0.564,0.135 0.845,0.208c0.281,0.072 0.561,0.149 0.84,0.228c11.191,3.141 17.98,10.669 23.476,20.535c7.778,-3.578 16.219,-4.962 24.653,-3.043c0.291,0.068 0.582,0.14 0.871,0.215c0.289,0.076 0.578,0.154 0.867,0.237c0.287,0.082 0.573,0.168 0.859,0.257c0.287,0.089 0.572,0.182 0.856,0.278c0.284,0.096 0.566,0.195 0.848,0.298c0.278,0.103 0.557,0.209 0.835,0.319c0.279,0.11 0.556,0.223 0.833,0.339c0.276,0.116 0.55,0.236 0.824,0.358c0.273,0.123 0.544,0.249 0.812,0.379c0.271,0.129 0.541,0.262 0.809,0.398c0.265,0.136 0.53,0.275 0.793,0.417c0.263,0.142 0.525,0.288 0.785,0.436c0.26,0.149 0.518,0.3 0.773,0.455c0.258,0.155 0.512,0.313 0.762,0.473c0.253,0.161 0.504,0.325 0.754,0.492c0.247,0.167 0.494,0.337 0.738,0.51c0.245,0.173 0.487,0.349 0.727,0.527c0.239,0.179 0.478,0.361 0.715,0.545c0.234,0.184 0.467,0.372 0.699,0.562c0.232,0.19 0.461,0.383 0.687,0.578c0.227,0.196 0.451,0.394 0.672,0.595c0.222,0.201 0.442,0.404 0.66,0.611c0.217,0.206 0.43,0.415 0.641,0.626c0.214,0.212 0.423,0.426 0.629,0.642c0.208,0.216 0.413,0.435 0.613,0.657c0.201,0.221 0.4,0.445 0.598,0.671c0.195,0.226 0.388,0.455 0.578,0.685c0.19,0.231 0.378,0.464 0.563,0.699c0.184,0.236 0.367,0.473 0.546,0.713c0.18,0.24 0.357,0.482 0.532,0.725c0.172,0.244 0.342,0.49 0.511,0.739c0.167,0.248 0.331,0.498 0.493,0.75c5.64,8.961 6.261,19.054 4.015,29.186c5.746,3.337 10.664,7.684 14.211,13.343c0.151,0.239 0.3,0.481 0.445,0.725c0.149,0.243 0.292,0.488 0.43,0.735c0.141,0.247 0.277,0.496 0.41,0.747c0.136,0.25 0.267,0.502 0.395,0.755c0.127,0.254 0.252,0.509 0.375,0.766c0.12,0.257 0.237,0.515 0.351,0.775c0.115,0.259 0.227,0.52 0.336,0.783c0.11,0.262 0.215,0.526 0.317,0.791c0.101,0.265 0.2,0.531 0.297,0.798c0.093,0.268 0.185,0.536 0.273,0.806c0.089,0.27 0.175,0.541 0.258,0.813c0.081,0.272 0.159,0.544 0.234,0.818c0.076,0.274 0.149,0.548 0.219,0.824c0.068,0.275 0.133,0.552 0.195,0.829c0.06,0.277 0.117,0.555 0.172,0.834c0.055,0.278 0.107,0.558 0.156,0.837c0.047,0.28 0.092,0.561 0.133,0.842c0.042,0.281 0.08,0.562 0.114,0.844c0.033,0.282 0.063,0.564 0.089,0.847c0.029,0.282 0.052,0.565 0.071,0.849c0.021,0.283 0.037,0.566 0.05,0.85c0.013,0.283 0.023,0.567 0.028,0.851c0.008,0.284 0.01,0.568 0.008,0.852c-0,0.284 -0.004,0.568 -0.012,0.852c-0.008,0.283 -0.02,0.567 -0.035,0.851c-0.016,0.283 -0.034,0.567 -0.055,0.85c-0.023,0.283 -0.049,0.566 -0.078,0.848c-0.029,0.282 -0.061,0.565 -0.098,0.846c-0.036,0.282 -0.075,0.563 -0.117,0.844c-0.044,0.28 -0.091,0.56 -0.141,0.84c-0.049,0.28 -0.102,0.558 -0.16,0.837c-0.057,0.278 -0.117,0.555 -0.179,0.832c-2.477,10.743 -9.082,17.971 -18.215,23.675c0.482,1.194 0.901,2.409 1.258,3.646c0.356,1.237 0.649,2.489 0.878,3.756c0.058,0.321 0.11,0.642 0.157,0.964c0.049,0.322 0.095,0.645 0.136,0.968c0.04,0.323 0.076,0.646 0.11,0.97c0.031,0.324 0.06,0.649 0.086,0.973c0.023,0.325 0.044,0.65 0.062,0.975c0.016,0.325 0.028,0.65 0.035,0.976c0.011,0.325 0.016,0.651 0.016,0.976c0,0.326 -0.004,0.652 -0.012,0.977c-0.005,0.326 -0.015,0.651 -0.031,0.976c-0.016,0.325 -0.035,0.65 -0.059,0.975c-0.023,0.325 -0.05,0.65 -0.082,0.975c-0.033,0.323 -0.07,0.646 -0.109,0.968c-0.039,0.323 -0.082,0.646 -0.129,0.969c-0.047,0.323 -0.097,0.645 -0.152,0.965c-0.057,0.32 -0.117,0.641 -0.18,0.961c-0.062,0.318 -0.13,0.635 -0.203,0.953c-0.07,0.318 -0.145,0.635 -0.223,0.953c-0.078,0.315 -0.161,0.63 -0.25,0.946c-0.086,0.312 -0.175,0.625 -0.269,0.937c-0.097,0.31 -0.195,0.62 -0.297,0.93c-0.102,0.31 -0.207,0.618 -0.316,0.925c-0.11,0.305 -0.223,0.61 -0.34,0.915c-0.117,0.304 -0.239,0.606 -0.364,0.906c-0.125,0.302 -0.252,0.601 -0.382,0.898c-0.133,0.297 -0.27,0.593 -0.411,0.887c-0.138,0.294 -0.279,0.587 -0.425,0.879c-0.149,0.292 -0.3,0.581 -0.453,0.867c-0.154,0.287 -0.31,0.572 -0.469,0.856c-0.162,0.283 -0.326,0.565 -0.492,0.843c-0.17,0.279 -0.342,0.556 -0.516,0.832c-0.174,0.274 -0.352,0.546 -0.531,0.817c-0.183,0.271 -0.367,0.539 -0.555,0.804c-0.182,0.263 -0.368,0.524 -0.559,0.782c-0.187,0.257 -0.378,0.513 -0.574,0.765c-0.195,0.253 -0.394,0.504 -0.597,0.754c-0.201,0.248 -0.405,0.492 -0.614,0.735c-0.208,0.244 -0.419,0.485 -0.633,0.722c-0.213,0.237 -0.429,0.472 -0.648,0.703c-0.221,0.235 -0.444,0.465 -0.668,0.692c-0.226,0.226 -0.456,0.45 -0.687,0.672c-0.23,0.221 -0.463,0.438 -0.7,0.652c-0.237,0.216 -0.476,0.428 -0.718,0.637c-0.243,0.211 -0.486,0.418 -0.731,0.621c-0.247,0.203 -0.497,0.402 -0.75,0.597c-0.252,0.198 -0.506,0.392 -0.762,0.582c-0.257,0.191 -0.517,0.378 -0.777,0.563c-0.263,0.185 -0.527,0.366 -0.793,0.543c-0.266,0.177 -0.534,0.351 -0.805,0.523c-0.268,0.17 -0.54,0.336 -0.816,0.5c-0.273,0.164 -0.549,0.326 -0.828,0.485c-0.279,0.156 -0.559,0.31 -0.84,0.461c-0.284,0.148 -0.569,0.294 -0.855,0.437c-0.287,0.143 -0.575,0.283 -0.864,0.418c-0.289,0.138 -0.579,0.271 -0.871,0.399c-0.294,0.127 -0.588,0.252 -0.883,0.375c-0.296,0.119 -0.595,0.237 -0.894,0.351c-0.297,0.115 -0.596,0.225 -0.899,0.332c-0.302,0.104 -0.605,0.206 -0.91,0.305c-0.304,0.099 -0.609,0.194 -0.914,0.285c-0.307,0.091 -0.616,0.178 -0.926,0.262c-0.307,0.083 -0.615,0.162 -0.925,0.238c-0.313,0.078 -0.625,0.151 -0.938,0.219c-0.312,0.067 -0.625,0.131 -0.937,0.191c-0.315,0.06 -0.631,0.116 -0.946,0.168c-11.554,1.891 -21.668,-1.129 -30.992,-7.914c-3.101,3.063 -6.258,6.024 -9.621,8.797c-0.012,6.262 -0.773,18.047 0.391,23.637c-3.614,0.382 -7.363,1.765 -10.929,2.562c0.072,-9.691 -0.195,-19.406 -0.333,-29.101c-2.467,-1.579 -4.849,-3.239 -7.219,-4.957c-2.554,3.211 -5.628,5.734 -9.204,7.742c-0.286,0.159 -0.573,0.314 -0.863,0.465c-0.289,0.151 -0.58,0.299 -0.873,0.445c-0.293,0.143 -0.588,0.284 -0.885,0.422c-0.296,0.135 -0.594,0.268 -0.894,0.398c-0.3,0.13 -0.601,0.257 -0.903,0.379c-0.303,0.123 -0.608,0.241 -0.913,0.356c-0.306,0.117 -0.613,0.229 -0.921,0.336c-0.308,0.106 -0.618,0.21 -0.929,0.312c-0.311,0.099 -0.623,0.195 -0.936,0.289c-0.314,0.094 -0.628,0.182 -0.943,0.266c-0.316,0.086 -0.632,0.168 -0.949,0.246c-0.318,0.075 -0.636,0.148 -0.955,0.219c-0.319,0.07 -0.639,0.135 -0.96,0.195c-0.32,0.062 -0.642,0.121 -0.964,0.176c-0.323,0.054 -0.645,0.104 -0.968,0.148c-0.324,0.047 -0.648,0.09 -0.972,0.129c-0.324,0.036 -0.649,0.07 -0.974,0.102c-0.326,0.031 -0.651,0.057 -0.977,0.078c-0.326,0.023 -0.652,0.043 -0.979,0.058c-0.326,0.013 -0.652,0.024 -0.979,0.032c-0.326,0.005 -0.653,0.007 -0.979,0.007c-0.327,-0.002 -0.654,-0.007 -0.98,-0.015c-0.327,-0.011 -0.653,-0.025 -0.979,-0.043c-0.327,-0.016 -0.652,-0.037 -0.978,-0.063c-0.326,-0.023 -0.651,-0.052 -0.976,-0.086c-0.325,-0.034 -0.65,-0.07 -0.974,-0.109c-0.324,-0.042 -0.647,-0.087 -0.97,-0.137c-0.323,-0.049 -0.645,-0.101 -0.967,-0.156c-0.322,-0.057 -0.643,-0.119 -0.963,-0.184c-0.321,-0.065 -0.64,-0.132 -0.958,-0.203c-0.319,-0.073 -0.636,-0.149 -0.953,-0.23c-0.317,-0.078 -0.633,-0.162 -0.947,-0.25c-0.319,-0.086 -0.636,-0.177 -0.952,-0.274c-0.316,-0.096 -0.631,-0.195 -0.944,-0.297c-0.313,-0.104 -0.626,-0.21 -0.936,-0.32c-0.311,-0.112 -0.621,-0.226 -0.929,-0.344c-0.308,-0.119 -0.614,-0.242 -0.919,-0.367c-0.305,-0.125 -0.608,-0.255 -0.91,-0.39c-0.302,-0.133 -0.602,-0.27 -0.9,-0.411c-0.298,-0.14 -0.595,-0.285 -0.889,-0.433c-0.295,-0.149 -0.588,-0.301 -0.879,-0.457c-0.291,-0.156 -0.58,-0.317 -0.867,-0.481c-0.287,-0.161 -0.571,-0.328 -0.854,-0.5c-0.283,-0.169 -0.563,-0.342 -0.842,-0.519c-0.279,-0.177 -0.555,-0.358 -0.829,-0.543c-0.274,-0.182 -0.545,-0.369 -0.814,-0.559c-0.27,-0.192 -0.537,-0.386 -0.801,-0.582c-0.264,-0.198 -0.526,-0.4 -0.786,-0.605c-0.259,-0.203 -0.516,-0.41 -0.771,-0.621c-0.254,-0.209 -0.505,-0.421 -0.754,-0.637c-0.249,-0.219 -0.495,-0.439 -0.739,-0.66c-0.243,-0.224 -0.484,-0.449 -0.722,-0.676c-0.238,-0.229 -0.473,-0.461 -0.705,-0.695c-0.232,-0.235 -0.461,-0.473 -0.687,-0.715c-0.227,-0.24 -0.45,-0.482 -0.67,-0.727c-0.22,-0.247 -0.437,-0.496 -0.651,-0.746c-0.214,-0.252 -0.425,-0.506 -0.632,-0.762c-0.208,-0.257 -0.412,-0.516 -0.613,-0.777c-0.202,-0.263 -0.4,-0.527 -0.594,-0.793c-0.195,-0.265 -0.386,-0.534 -0.574,-0.805c-0.188,-0.273 -0.372,-0.546 -0.553,-0.82c-0.181,-0.276 -0.359,-0.555 -0.533,-0.836c-0.174,-0.281 -0.345,-0.564 -0.512,-0.847c-0.167,-0.284 -0.331,-0.571 -0.491,-0.86c-5.405,-9.894 -5.747,-20.619 -2.666,-31.277c-7.457,-4.517 -13.753,-9.662 -17.719,-17.613c-0.131,-0.27 -0.259,-0.541 -0.383,-0.813c-0.125,-0.273 -0.246,-0.547 -0.364,-0.822c-0.118,-0.276 -0.232,-0.553 -0.343,-0.831c-0.111,-0.278 -0.219,-0.558 -0.323,-0.839c-0.104,-0.281 -0.205,-0.563 -0.302,-0.846c-0.098,-0.284 -0.192,-0.568 -0.282,-0.854c-0.09,-0.286 -0.177,-0.573 -0.261,-0.86c-0.083,-0.288 -0.163,-0.577 -0.239,-0.867c-0.077,-0.29 -0.149,-0.58 -0.219,-0.872c-0.069,-0.291 -0.134,-0.584 -0.197,-0.877c-0.062,-0.293 -0.12,-0.587 -0.175,-0.882c-0.055,-0.294 -0.106,-0.589 -0.154,-0.885c-0.048,-0.296 -0.092,-0.592 -0.132,-0.889c-0.04,-0.297 -0.077,-0.594 -0.11,-0.892c-0.033,-0.298 -0.063,-0.596 -0.089,-0.895c-0.026,-0.298 -0.048,-0.597 -0.067,-0.896c-0.018,-0.299 -0.033,-0.599 -0.044,-0.898c-0.011,-0.299 -0.019,-0.599 -0.023,-0.898c-0.004,-0.3 -0.004,-0.6 -0.001,-0.9c0.003,-0.299 0.01,-0.599 0.021,-0.898c0.011,-0.3 0.026,-0.599 0.044,-0.898c0.017,-0.299 0.039,-0.598 0.064,-0.897c0.026,-0.298 0.055,-0.596 0.087,-0.894c0.033,-0.298 0.069,-0.596 0.109,-0.893c0.04,-0.297 0.083,-0.593 0.131,-0.889c0.047,-0.296 0.097,-0.591 0.152,-0.886c0.054,-0.295 0.112,-0.589 0.174,-0.882c0.061,-0.293 0.126,-0.585 0.195,-0.877c0.069,-0.292 0.141,-0.583 0.217,-0.873c0.076,-0.29 0.155,-0.579 0.238,-0.867c0.083,-0.288 0.169,-0.574 0.259,-0.86c0.09,-0.286 0.183,-0.571 0.28,-0.854c3.514,-10.332 10.937,-17.526 20.592,-22.22c-1.982,-5.152 -2.976,-10.297 -2.577,-15.825c0.019,-0.275 0.042,-0.55 0.068,-0.825c0.026,-0.274 0.056,-0.548 0.089,-0.822c0.033,-0.274 0.069,-0.547 0.109,-0.82c0.04,-0.272 0.083,-0.545 0.13,-0.816c0.046,-0.272 0.096,-0.543 0.15,-0.813c0.053,-0.271 0.11,-0.541 0.17,-0.81c0.061,-0.269 0.124,-0.537 0.191,-0.804c0.067,-0.268 0.137,-0.534 0.211,-0.8c0.073,-0.266 0.15,-0.531 0.231,-0.794c0.08,-0.264 0.163,-0.527 0.25,-0.789c0.087,-0.261 0.177,-0.522 0.271,-0.781c0.093,-0.26 0.19,-0.518 0.289,-0.775c0.1,-0.257 0.203,-0.512 0.309,-0.767c0.107,-0.254 0.216,-0.507 0.329,-0.759c0.112,-0.252 0.228,-0.502 0.347,-0.75c0.119,-0.249 0.241,-0.496 0.366,-0.742c0.125,-0.246 0.253,-0.49 0.384,-0.733c0.131,-0.242 0.266,-0.483 0.403,-0.722c0.137,-0.239 0.277,-0.476 0.421,-0.712c0.143,-0.236 0.289,-0.469 0.438,-0.701c0.149,-0.232 0.301,-0.462 0.455,-0.69c0.155,-0.228 0.313,-0.455 0.473,-0.679c0.161,-0.224 0.324,-0.446 0.49,-0.666c0.166,-0.22 0.335,-0.438 0.506,-0.654c0.172,-0.216 0.346,-0.43 0.523,-0.641c0.177,-0.212 0.356,-0.421 0.538,-0.628c0.182,-0.207 0.367,-0.412 0.554,-0.614c0.188,-0.202 0.377,-0.402 0.569,-0.6c0.193,-0.197 0.388,-0.393 0.585,-0.586c0.197,-0.192 0.396,-0.382 0.598,-0.57c0.202,-0.188 0.406,-0.373 0.613,-0.556c0.207,-0.182 0.415,-0.362 0.626,-0.54c8.149,-6.916 17.323,-8.348 27.663,-7.44Z" style="fill:#8bc34a;fill-rule:nonzero;"/><path d="M473.481,239.398c0.329,-9.466 2.767,-19.255 6.29,-27.999c1.606,-3.986 5.938,-14.873 10.364,-16.271c1.031,-0.326 1.66,-0.017 2.562,0.454c2.406,3.443 -3.516,10.787 -5.109,13.955c-7.621,15.161 -7.727,33.687 -6.742,50.307c0.328,-0.561 0.665,-1.116 1.011,-1.666c0.347,-0.55 0.702,-1.094 1.067,-1.632c0.362,-0.538 0.734,-1.07 1.117,-1.595c0.383,-0.526 0.773,-1.045 1.172,-1.557c0.398,-0.513 0.806,-1.019 1.222,-1.518c0.417,-0.499 0.842,-0.991 1.274,-1.476c0.432,-0.485 0.872,-0.962 1.32,-1.432c0.451,-0.47 0.908,-0.933 1.371,-1.388c0.464,-0.455 0.935,-0.902 1.414,-1.341c0.479,-0.44 0.965,-0.871 1.457,-1.294c0.492,-0.423 0.992,-0.838 1.5,-1.244c0.508,-0.407 1.021,-0.805 1.539,-1.194c0.521,-0.389 1.049,-0.77 1.582,-1.142c0.532,-0.371 1.071,-0.734 1.618,-1.088c0.544,-0.354 1.093,-0.699 1.648,-1.034c0.557,-0.336 1.12,-0.662 1.688,-0.979c1.988,-1.134 4.171,-2.465 6.421,-2.984c1.168,-0.27 2.442,-0.242 3.43,0.534c0.711,0.562 1.176,1.452 1.152,2.368c-0.027,1.032 -0.507,1.687 -1.273,2.327c-1.609,1.346 -4.445,2.249 -6.375,3.212c-1.185,0.602 -2.342,1.254 -3.473,1.957c-1.13,0.703 -2.226,1.453 -3.289,2.252c-1.065,0.798 -2.092,1.641 -3.082,2.528c-0.992,0.888 -1.942,1.817 -2.851,2.787c-11.805,12.84 -11.41,25.108 -10.645,41.405c8.789,-7.859 17.57,-15.766 25.695,-24.317c4.047,-4.26 8.047,-8.653 11.758,-13.207c1.699,-2.085 3.102,-4.402 4.926,-6.381c0.57,-0.616 1.266,-1.31 2.043,-1.658c0.992,-0.444 1.512,-0.314 2.508,-0.005c0.84,0.781 1.789,1.728 1.644,3.009c-0.613,5.532 -33.086,38.731 -38.449,43.926c-3.101,3.063 -6.258,6.024 -9.621,8.797c-0.012,6.262 -0.773,18.047 0.391,23.637c-3.614,0.382 -7.363,1.765 -10.929,2.562c0.072,-9.691 -0.195,-19.406 -0.333,-29.101c-2.467,-1.579 -4.849,-3.239 -7.219,-4.957c-9.025,-6.137 -16.907,-15.133 -23.149,-24.016c-3.193,-4.546 -11.517,-16.133 -10.093,-22.032c0.26,-1.081 0.556,-1.424 1.469,-2.008c3.008,-0.03 4.617,3.426 5.72,5.701c7.674,15.823 18.587,28.874 33.534,38.374c-0.267,-14.93 -0.25,-29.858 0.052,-44.787c-13.793,-9.983 -25.799,-22.698 -33.282,-38.099c-1.346,-2.771 -4.537,-8.932 -3.531,-11.834c0.632,-0.774 1.213,-1.199 2.24,-1.345c2.731,-0.389 3.573,2.433 4.429,4.396c7.444,17.078 15.562,27.351 30.817,38.093Z" style="fill:#5d4037;fill-rule:nonzero;"/><path d="M472.806,336.087c3.556,-0.238 7.407,-1.847 10.915,-2.664c0.119,12.821 0.529,25.631 1.23,38.43c0.707,14.047 1.23,28.996 5.102,42.59c1.625,5.707 4.07,11.664 8.425,15.851c7.184,6.907 26.012,9.082 36.028,11.274c5.511,1.203 11.164,2.598 16.515,4.375c6.274,2.082 12.477,4.969 17.774,8.953c2.285,1.719 5.34,4.402 5.199,7.559c-0.031,0.714 -0.273,1.082 -0.672,1.64c-1.18,0.535 -2.082,0.504 -3.277,0.082c-2.684,-0.949 -4.973,-3.429 -7.27,-5.082c-2.039,-1.469 -4.301,-2.726 -6.558,-3.824c-11.844,-5.758 -24.836,-6.648 -37.536,-9.141c1.098,1.852 2.172,3.68 3.098,5.625c10.313,1.368 20.07,5.606 26.672,13.969c1.004,1.274 2.367,3.344 2.27,5.059c-0.032,0.523 -0.071,0.558 -0.223,0.992c-0.875,0.418 -1.367,0.379 -2.289,0.039c-2.817,-1.035 -5.227,-4.406 -7.387,-6.418c-4.945,-4.598 -11.012,-6.813 -17.449,-8.391c1,4.36 4.476,14.387 2.305,18.153c-0.938,0.508 -1.321,0.707 -2.43,0.359c-1.106,-0.344 -1.75,-1.434 -2.086,-2.469c-0.738,-2.273 -0.816,-4.765 -1.348,-7.097c-2.051,-8.989 -5.797,-16.328 -14.066,-20.934c-3.867,-2.156 -8.188,-3.488 -11.973,-5.762c6.324,11.426 15.113,19.407 19.59,32.266c0.434,1.246 1.316,3.344 1.094,4.645c-0.184,1.093 -1.324,2.218 -2.36,2.539c-0.945,0.296 -1.421,0.101 -2.253,-0.27c-3.598,-4.547 -4.79,-11.027 -8.161,-15.977c-1.011,3.508 -2.527,7.465 -2.675,11.122c-0.075,1.847 0.687,4 0.269,5.777c-0.133,0.559 -0.711,1.148 -1.18,1.445c-0.886,0.559 -1.382,0.324 -2.269,0.039c-1.746,-1.781 -1.852,-3.843 -1.813,-6.254c0.094,-5.972 2.129,-11.812 2.676,-17.757c-1.824,-3.446 -5.07,-6.485 -7.566,-9.485c-1.315,-1.607 -2.537,-3.281 -3.664,-5.023c-1.128,-1.742 -2.157,-3.542 -3.086,-5.399c0.039,3.231 0.043,6.477 0.261,9.7c0.43,6.207 3.446,31 -0.687,34.753c-0.875,0.797 -1.703,0.75 -2.789,0.704c-1.12,-0.844 -1.506,-1.793 -1.663,-3.184c-0.55,-4.891 0.431,-10.254 0.176,-15.273c-3.526,3.472 -5.57,7.148 -7.424,11.722c-0.544,1.344 -1.096,3.262 -1.93,4.418c-0.619,0.856 -1.054,0.84 -2.022,1.043c-1.134,-0.371 -1.318,-0.48 -2.118,-1.367c-1.064,-3.461 1.672,-7.961 3.259,-10.961c0.596,-1.122 1.232,-2.22 1.909,-3.293c0.678,-1.073 1.393,-2.12 2.148,-3.141c0.754,-1.023 1.546,-2.015 2.374,-2.976c0.827,-0.964 1.69,-1.895 2.586,-2.793c-1.006,-6.406 -1.938,-12.774 -2.188,-19.262c-4.252,8.672 -8.458,14.567 -16.285,20.418c0.223,6.594 0.71,16.375 -4.124,21.606c-0.823,0.89 -1.507,1.316 -2.715,1.543c-0.565,-0.282 -0.828,-0.247 -1.059,-0.891c-1.028,-2.875 2.076,-6.77 2.669,-9.664c0.626,-3.063 0.506,-6.172 0.412,-9.277c-5.274,2.66 -10.491,5.386 -15.252,8.914c-2.276,1.687 -4.843,5.918 -7.667,6c-0.928,-0.348 -1.54,-0.723 -2.016,-1.645c-0.445,-0.855 -0.259,-1.891 0.112,-2.738c3.523,-8.055 19.907,-14.602 26.826,-20.656c4.225,-3.7 7.322,-8.149 10.065,-13.008c-7.622,4.769 -15.409,9.203 -23.24,13.617c-4.771,2.687 -9.639,5.144 -14.162,8.254c-2.762,1.898 -5.318,3.957 -7.611,6.406c-1.092,1.168 -3.164,4.18 -4.538,4.766c-0.517,0.218 -1.362,0.187 -1.886,0.031c-0.851,-0.254 -1.46,-1 -1.75,-1.813c-0.479,-1.335 0.503,-2.945 1.191,-4.046c4.968,-7.957 14.354,-12.879 21.84,-18.09c-14.607,2.566 -27.556,8.656 -37.929,19.347c-1.429,1.473 -3.206,3.071 -5.276,1.313c-0.765,-0.649 -1.235,-1.281 -1.253,-2.324c-0.065,-3.825 7.467,-9.489 10.216,-11.567c8.574,-6.48 18.129,-10.519 28.455,-13.304c8.796,-2.375 21.266,-2.832 28.468,-8.641c7.987,-6.441 10.67,-19.051 12.051,-28.633c1.502,-10.422 1.822,-20.988 2.203,-31.5c0.476,-11.776 0.739,-23.557 0.792,-35.344Z" style="fill:#5d4037;fill-rule:nonzero;"/><path d="M483.756,328.451c10.082,-3.016 20.226,-5.828 30.109,-9.457c37.699,-13.832 73.106,-36.309 92.645,-72.491c0.442,-0.827 0.875,-1.659 1.296,-2.496c0.42,-0.837 0.83,-1.68 1.231,-2.527c0.401,-0.847 0.792,-1.7 1.172,-2.557c0.38,-0.857 0.75,-1.718 1.109,-2.584c0.357,-0.866 0.705,-1.737 1.043,-2.611c0.336,-0.875 0.663,-1.754 0.981,-2.636c0.315,-0.883 0.619,-1.769 0.914,-2.659c0.294,-0.89 0.576,-1.784 0.847,-2.681c0.271,-0.897 0.532,-1.798 0.782,-2.701c0.25,-0.904 0.488,-1.81 0.714,-2.719c0.23,-0.91 0.447,-1.822 0.653,-2.736c0.203,-0.915 0.396,-1.832 0.578,-2.752c0.185,-0.919 0.357,-1.841 0.516,-2.764c0.158,-0.924 0.307,-1.85 0.445,-2.777c0.138,-0.927 0.263,-1.856 0.375,-2.787c0.114,-0.93 0.217,-1.862 0.308,-2.795c0.092,-0.932 0.172,-1.866 0.243,-2.801c0.067,-0.935 0.125,-1.871 0.171,-2.807c0.045,-0.936 0.079,-1.873 0.102,-2.81c0.021,-0.937 0.031,-1.875 0.031,-2.812c0,-0.938 -0.011,-1.875 -0.035,-2.812c-0.026,-0.937 -0.062,-1.874 -0.109,-2.81c-0.045,-0.936 -0.102,-1.872 -0.172,-2.806c-0.07,-0.935 -0.152,-1.869 -0.246,-2.802c-0.091,-0.933 -0.196,-1.864 -0.313,-2.794c-0.114,-0.931 -0.241,-1.859 -0.379,-2.786c-0.138,-0.928 -0.287,-1.853 -0.449,-2.776c-0.161,-0.924 -0.334,-1.845 -0.519,-2.764c-0.183,-0.919 -0.377,-1.836 -0.582,-2.75c-0.209,-0.915 -0.426,-1.827 -0.653,-2.736c-0.229,-0.909 -0.47,-1.815 -0.722,-2.718c-0.25,-0.903 -0.512,-1.803 -0.786,-2.7c-7.168,-24.081 -22.257,-46.253 -40.496,-63.339c-1.886,-1.766 -4.507,-4.366 -3.375,-7.139c1.129,-0.38 1.899,-0.317 2.989,0.205c3.593,1.725 6.957,6.118 9.664,9.006c15.902,16.969 28.609,36.239 35.558,58.573c0.297,0.947 0.582,1.897 0.856,2.851c0.273,0.954 0.535,1.911 0.785,2.872c0.25,0.96 0.488,1.924 0.715,2.89c0.224,0.966 0.437,1.935 0.64,2.907c0.201,0.972 0.391,1.946 0.571,2.922c0.177,0.976 0.342,1.955 0.496,2.935c0.153,0.981 0.294,1.963 0.422,2.947c0.13,0.984 0.247,1.969 0.351,2.956c0.104,0.987 0.197,1.975 0.278,2.964c0.078,0.989 0.145,1.979 0.203,2.97c0.054,0.991 0.097,1.982 0.129,2.974c0.031,0.992 0.049,1.984 0.054,2.977c0.006,0.992 -0.001,1.984 -0.019,2.977c-0.018,0.992 -0.048,1.984 -0.09,2.975c-0.044,0.992 -0.1,1.982 -0.168,2.972c-0.065,0.99 -0.145,1.98 -0.238,2.968c-0.091,0.988 -0.196,1.975 -0.313,2.96c-0.117,0.986 -0.246,1.97 -0.387,2.952c-0.14,0.982 -0.293,1.963 -0.457,2.941c-0.166,0.979 -0.345,1.955 -0.535,2.929c-0.19,0.975 -0.392,1.946 -0.605,2.915c-0.214,0.969 -0.439,1.935 -0.676,2.899c-0.237,0.964 -0.486,1.924 -0.746,2.882c-0.263,0.957 -0.537,1.911 -0.82,2.861c-0.287,0.951 -0.584,1.898 -0.891,2.841c-0.31,0.943 -0.63,1.882 -0.961,2.818c-0.333,0.935 -0.677,1.866 -1.031,2.793c-0.354,0.926 -0.72,1.848 -1.098,2.766c-0.38,0.918 -0.769,1.831 -1.168,2.739c-0.401,0.907 -0.814,1.81 -1.238,2.708c-0.422,0.898 -0.856,1.79 -1.301,2.677c-0.445,0.887 -0.901,1.768 -1.367,2.644c-22.715,42.67 -67.5,66.698 -112.172,80.166c-4.948,1.498 -9.913,2.942 -14.894,4.332c-3.508,0.817 -7.359,2.426 -10.915,2.664c-10.351,2.883 -21.028,4.86 -31.444,7.555c-24.495,6.336 -59.932,17.723 -76.06,38.313c-4.591,5.863 -7.854,13.156 -6.766,20.75c2.135,14.91 17.72,23.386 30.265,28.402c2.268,0.91 4.439,1.996 6.792,2.684c3.498,1.019 13.803,2.406 16.22,4.722c0.827,0.789 0.856,0.977 0.857,2.039c-0.362,0.539 -0.712,1.156 -1.328,1.442c-4.203,1.941 -29.341,-8.161 -34.11,-10.719c-9.788,-5.258 -19.483,-13.004 -22.723,-24.098c-2.247,-7.695 -0.78,-15.57 3.056,-22.492c13.411,-24.187 52.156,-37.57 77.623,-44.379c12.474,-3.332 25.259,-5.676 37.639,-9.293c3.566,-0.797 7.315,-2.18 10.929,-2.562Z" style="fill:#558b2f;fill-rule:nonzero;"/><path d="M492.974,17.898c2.836,0.051 7.258,4.961 9.329,6.719c1.921,1.636 3.25,2.17 5.777,1.954c0.156,-0.013 0.316,-0.03 0.473,-0.046c0.793,0.452 0.89,0.566 1.347,1.359c-0.176,0.671 -0.304,1.244 -0.308,1.939c2.421,2.812 6.164,5.053 9.152,7.295c5.387,-2.317 10.996,-4.169 16.523,-6.13c-0.218,-1.59 -0.488,-3.306 -0.382,-4.91c0.062,-1.001 0.285,-1.889 1.046,-2.577l0.907,0.086c1.472,1.022 2.082,2.718 2.863,4.281c1.039,-2.545 2.082,-6.317 4.578,-7.814l0.629,0.269c1.016,3.58 -0.582,8.884 -1.207,12.528c1.652,1.656 4.207,3.598 4.273,6.141c0.02,0.713 0.024,0.49 -0.546,1.006c-2.809,0.13 -4.543,-1.609 -6.665,-3.221c-4.617,3.429 -9.296,6.768 -14.039,10.019c1.481,2.648 9.418,17.736 10.7,18.637c0.777,0.545 1.398,0.012 2.375,0.956c0.199,1.215 -0.067,1.431 -0.618,2.498c1.77,2.952 3.391,6.011 5.075,9.014c-1.926,1.605 -3.93,3.085 -5.953,4.567c-8.633,-9.002 -16.731,-18.723 -24.879,-28.173c-6.141,3.378 -16.598,9.76 -23.516,9.441c-1.398,-0.065 -2.801,-0.502 -3.641,-1.711c-0.699,-0.999 -0.867,-2.189 -0.527,-3.349c1.641,-5.602 14.246,-11.413 19.348,-14.218c-5.578,-7.938 -12.117,-15.231 -17.719,-23.189l5.605,-3.371Z" style="fill:#558b2f;fill-rule:nonzero;"/><path d="M585.521,120.017c1.867,-0.025 3.645,0.082 5.387,0.817c2.91,1.229 6.504,3.971 7.539,7.084c0.352,1.065 0.336,2.278 -0.344,3.223c-1.086,1.516 -3.687,1.81 -5.386,2.217c-2.555,0.04 -4.75,-0.169 -7.055,-1.366c-2.457,-1.277 -5.945,-3.932 -6.602,-6.812c-0.226,-0.999 -0.187,-1.939 0.434,-2.798c1.289,-1.78 4.031,-1.997 6.027,-2.365Z" style="fill:#8bc34a;fill-rule:nonzero;"/><path d="M588.541,282.865c5.019,-0.606 8.305,0.754 12.426,3.429c-2.215,4.707 -5.039,7.008 -9.805,8.836c-2.469,0.399 -5.383,0.336 -7.805,-0.363c-1.324,-0.383 -2.672,-1.16 -3.261,-2.465c-0.43,-0.941 -0.235,-2.035 0.175,-2.949c1.438,-3.219 5.176,-5.176 8.27,-6.488Z" style="fill:#8bc34a;fill-rule:nonzero;"/><path d="M625.326,237.569c3.559,-0.211 6.285,0.553 9.293,2.45c-0.441,1.439 -0.953,2.8 -1.68,4.125c-2.011,3.682 -4.937,5.481 -8.824,6.689c-2.273,0.281 -5.492,0.544 -7.555,-0.635c-0.89,-0.51 -1.515,-1.193 -1.703,-2.236c-0.258,-1.42 0.324,-2.863 1.047,-4.056c2.16,-3.589 5.516,-5.343 9.422,-6.337Z" style="fill:#8bc34a;fill-rule:nonzero;"/><path d="M561.771,92.264c2.496,-0.106 4.707,0.209 7.055,1.099c1.785,0.676 3.895,1.936 4.562,3.847c0.348,0.988 0.157,2.032 -0.367,2.915c-1.504,2.54 -4.992,3.617 -7.672,4.397c-2.726,0.133 -5.539,-0.292 -8.027,-1.449c-1.641,-0.765 -3.574,-2.146 -3.988,-4.036c-0.188,-0.873 0.027,-1.757 0.484,-2.511c1.496,-2.471 5.301,-3.616 7.953,-4.262Z" style="fill:#8bc34a;fill-rule:nonzero;"/><path d="M612.279,105.314l0.902,0.147c0.821,0.721 1.536,1.435 2.129,2.362c1.762,2.749 2.102,6.759 1.309,9.878c-1.027,4.045 -3.469,6.456 -6.891,8.565c-0.554,0.183 -0.937,0.149 -1.515,0.133c-0.739,-0.48 -1.235,-0.885 -1.715,-1.641c-1.793,-2.82 -2.117,-6.988 -1.375,-10.191c1,-4.306 3.59,-6.944 7.156,-9.253Z" style="fill:#8bc34a;fill-rule:nonzero;"/><path d="M593.392,226.362c1.762,-0.003 3.516,0.214 5.164,0.862c0.196,0.075 0.388,0.155 0.579,0.241c0.192,0.085 0.381,0.175 0.566,0.27c0.187,0.095 0.372,0.195 0.555,0.299c0.179,0.105 0.358,0.214 0.535,0.328c0.174,0.114 0.346,0.232 0.515,0.354c0.17,0.123 0.336,0.25 0.5,0.381c0.162,0.131 0.321,0.267 0.477,0.406c0.156,0.14 0.309,0.283 0.457,0.431c0.148,0.147 0.293,0.298 0.434,0.453c0.143,0.155 0.28,0.313 0.41,0.475c0.133,0.162 0.262,0.327 0.387,0.496c0.125,0.168 0.244,0.34 0.359,0.515c0.114,0.174 0.225,0.352 0.332,0.532c0.107,0.181 0.208,0.364 0.305,0.549c0.096,0.186 0.187,0.374 0.273,0.565c0.086,0.19 0.168,0.382 0.246,0.577c1.457,3.613 1.227,7.316 -0.234,10.862c-0.938,-0.057 -1.864,-0.139 -2.781,-0.358c-3.379,-0.806 -6.325,-2.694 -8.149,-5.693c-2.441,-4.015 -2.09,-8.214 -0.93,-12.545Z" style="fill:#8bc34a;fill-rule:nonzero;"/><path d="M365.789,345.322c2.731,-0.039 5.262,0.308 7.75,1.488c3.14,1.496 6.098,4.234 7.122,7.652c0.584,1.95 0.781,5.598 -0.156,7.43c-1.76,0.145 -3.622,0.066 -5.341,-0.344c-0.209,-0.049 -0.417,-0.103 -0.624,-0.16c-0.206,-0.06 -0.411,-0.125 -0.615,-0.195c-0.203,-0.068 -0.405,-0.142 -0.604,-0.223c-0.2,-0.078 -0.398,-0.161 -0.593,-0.25c-0.196,-0.091 -0.389,-0.186 -0.58,-0.285c-0.191,-0.099 -0.379,-0.202 -0.565,-0.309c-0.185,-0.109 -0.368,-0.222 -0.548,-0.339c-0.18,-0.118 -0.357,-0.239 -0.531,-0.364c-0.174,-0.127 -0.345,-0.259 -0.512,-0.394c-0.167,-0.133 -0.331,-0.271 -0.492,-0.414c-0.16,-0.143 -0.317,-0.291 -0.47,-0.442c-0.154,-0.151 -0.303,-0.306 -0.448,-0.465c-0.146,-0.156 -0.287,-0.317 -0.424,-0.484c-0.138,-0.164 -0.271,-0.332 -0.4,-0.504c-0.128,-0.174 -0.253,-0.35 -0.373,-0.527c-0.12,-0.177 -0.236,-0.358 -0.347,-0.543c-1.878,-3.152 -2.107,-6.824 -1.249,-10.328Z" style="fill:#8bc34a;fill-rule:nonzero;"/><path d="M569.646,262.304c1.356,0.26 2.594,1.526 3.516,2.505c2.199,2.329 3.031,5.845 2.867,8.985c-0.238,4.422 -2.527,7.504 -5.73,10.286c-1.121,-0.102 -1.985,-0.973 -2.77,-1.75c-2.406,-2.391 -3.496,-6.055 -3.402,-9.399c0.129,-4.492 2.465,-7.622 5.519,-10.627Z" style="fill:#8bc34a;fill-rule:nonzero;"/><path d="M583.662,68.696c1.012,0.674 1.758,1.502 2.449,2.494c2.031,2.925 2.809,6.269 2.063,9.78c-0.871,4.11 -3.543,7.067 -6.934,9.356c-1.465,-0.282 -2.539,-1.758 -3.32,-2.937c-1.797,-2.717 -2.074,-6.73 -1.301,-9.833c1.027,-4.121 3.594,-6.674 7.043,-8.86Z" style="fill:#8bc34a;fill-rule:nonzero;"/><g transform="matrix(75,0,0,75,351.031,254.355)"></g><text x="115.381px" y="254.355px" style="font-family:'PlayfairDisplay-Medium', 'Playfair Display';font-weight:500;font-size:75px;">Orizon</text><g transform="matrix(16.6667,0,0,16.6667,129.215,286.028)"><path d="M0.566,-0.062l0,0.062l-0.477,-0l0,-0.71l0.468,0l0,0.062l-0.398,0l-0,0.256l0.347,-0l0,0.059l-0.347,-0l-0,0.271l0.407,-0Z" style="fill:#555;fill-rule:nonzero;"/></g><g transform="matrix(16.6667,0,0,16.6667,139.324,286.028)"><path d="M0.246,0.01c-0.043,0 -0.082,-0.007 -0.119,-0.021c-0.036,-0.014 -0.068,-0.036 -0.095,-0.064l0.028,-0.048c0.029,0.027 0.059,0.047 0.089,0.059c0.03,0.013 0.061,0.019 0.094,0.019c0.04,-0 0.073,-0.008 0.099,-0.025c0.025,-0.016 0.038,-0.039 0.038,-0.07c-0,-0.021 -0.006,-0.037 -0.019,-0.047c-0.012,-0.011 -0.03,-0.02 -0.053,-0.027c-0.023,-0.007 -0.05,-0.015 -0.082,-0.023c-0.036,-0.01 -0.066,-0.021 -0.091,-0.032c-0.024,-0.011 -0.042,-0.025 -0.055,-0.042c-0.012,-0.017 -0.018,-0.039 -0.018,-0.066c-0,-0.034 0.008,-0.062 0.026,-0.085c0.017,-0.022 0.04,-0.039 0.07,-0.051c0.029,-0.011 0.062,-0.017 0.099,-0.017c0.04,0 0.075,0.007 0.106,0.019c0.031,0.013 0.056,0.031 0.075,0.053l-0.033,0.046c-0.018,-0.021 -0.041,-0.037 -0.066,-0.048c-0.026,-0.01 -0.055,-0.015 -0.086,-0.015c-0.021,-0 -0.042,0.003 -0.061,0.008c-0.019,0.006 -0.035,0.015 -0.047,0.028c-0.013,0.013 -0.019,0.031 -0.019,0.054c0,0.018 0.005,0.033 0.014,0.043c0.009,0.011 0.023,0.02 0.042,0.026c0.018,0.007 0.041,0.015 0.069,0.023c0.04,0.011 0.074,0.021 0.103,0.032c0.03,0.011 0.052,0.025 0.068,0.043c0.016,0.017 0.024,0.042 0.024,0.073c0,0.049 -0.018,0.086 -0.055,0.114c-0.037,0.027 -0.085,0.041 -0.145,0.041Z" style="fill:#555;fill-rule:nonzero;"/></g><g transform="matrix(16.6667,0,0,16.6667,147.374,286.028)"><path d="M0.341,0.01c-0.043,0 -0.082,-0.011 -0.116,-0.034c-0.035,-0.023 -0.062,-0.05 -0.082,-0.084l-0,0.321l-0.068,0l-0,-0.734l0.061,-0l-0,0.101c0.021,-0.032 0.049,-0.059 0.083,-0.079c0.034,-0.021 0.071,-0.031 0.111,-0.031c0.036,0 0.069,0.008 0.099,0.022c0.03,0.015 0.056,0.035 0.078,0.061c0.022,0.025 0.04,0.054 0.052,0.086c0.012,0.033 0.018,0.066 0.018,0.101c0,0.049 -0.009,0.094 -0.029,0.135c-0.02,0.041 -0.048,0.074 -0.083,0.098c-0.036,0.025 -0.077,0.037 -0.124,0.037Zm-0.019,-0.06c0.029,0 0.054,-0.005 0.077,-0.017c0.023,-0.012 0.042,-0.028 0.059,-0.048c0.016,-0.02 0.028,-0.043 0.037,-0.068c0.009,-0.025 0.013,-0.051 0.013,-0.077c0,-0.028 -0.005,-0.055 -0.015,-0.08c-0.009,-0.025 -0.023,-0.047 -0.041,-0.067c-0.018,-0.02 -0.038,-0.035 -0.062,-0.046c-0.023,-0.012 -0.049,-0.017 -0.076,-0.017c-0.017,-0 -0.035,0.003 -0.054,0.01c-0.019,0.007 -0.036,0.016 -0.053,0.028c-0.017,0.012 -0.031,0.026 -0.043,0.042c-0.011,0.015 -0.018,0.032 -0.021,0.049l-0,0.16c0.011,0.024 0.025,0.047 0.043,0.066c0.018,0.02 0.039,0.036 0.063,0.048c0.023,0.012 0.048,0.017 0.073,0.017Z" style="fill:#555;fill-rule:nonzero;"/></g><g transform="matrix(16.6667,0,0,16.6667,157.659,286.028)"><path d="M0.078,-0.73l0.068,0l-0,0.612c-0,0.026 0.005,0.043 0.014,0.051c0.009,0.008 0.02,0.012 0.034,0.012c0.012,0 0.024,-0.001 0.036,-0.004c0.012,-0.002 0.023,-0.005 0.031,-0.008l0.012,0.055c-0.013,0.005 -0.028,0.009 -0.046,0.013c-0.019,0.004 -0.035,0.005 -0.048,0.005c-0.031,0 -0.056,-0.009 -0.074,-0.027c-0.018,-0.018 -0.027,-0.043 -0.027,-0.074l-0,-0.635Z" style="fill:#555;fill-rule:nonzero;"/></g><g transform="matrix(16.6667,0,0,16.6667,162.19,286.028)"><path d="M0.297,0.01c-0.038,0 -0.072,-0.007 -0.104,-0.021c-0.031,-0.015 -0.058,-0.034 -0.081,-0.059c-0.023,-0.025 -0.041,-0.054 -0.054,-0.086c-0.013,-0.033 -0.019,-0.067 -0.019,-0.103c-0,-0.037 0.006,-0.072 0.019,-0.104c0.013,-0.033 0.031,-0.062 0.054,-0.087c0.023,-0.025 0.05,-0.044 0.082,-0.058c0.032,-0.015 0.066,-0.022 0.104,-0.022c0.037,0 0.071,0.007 0.103,0.022c0.031,0.014 0.058,0.033 0.082,0.058c0.023,0.025 0.041,0.054 0.054,0.087c0.013,0.032 0.019,0.067 0.019,0.104c0,0.036 -0.006,0.07 -0.019,0.103c-0.012,0.032 -0.03,0.061 -0.054,0.086c-0.023,0.025 -0.05,0.044 -0.082,0.059c-0.031,0.014 -0.066,0.021 -0.104,0.021Zm-0.189,-0.268c0,0.038 0.009,0.074 0.026,0.105c0.017,0.032 0.04,0.057 0.068,0.076c0.029,0.018 0.06,0.027 0.095,0.027c0.035,0 0.066,-0.009 0.095,-0.028c0.029,-0.019 0.052,-0.044 0.069,-0.076c0.017,-0.033 0.026,-0.068 0.026,-0.106c-0,-0.039 -0.009,-0.074 -0.026,-0.106c-0.017,-0.032 -0.04,-0.057 -0.069,-0.076c-0.028,-0.019 -0.06,-0.028 -0.095,-0.028c-0.034,-0 -0.066,0.009 -0.095,0.029c-0.028,0.019 -0.051,0.044 -0.068,0.076c-0.017,0.032 -0.026,0.068 -0.026,0.107Z" style="fill:#555;fill-rule:nonzero;"/></g><g transform="matrix(16.6667,0,0,16.6667,172.11,286.028)"><path d="M0.335,-0.461c-0.045,0.001 -0.085,0.014 -0.12,0.038c-0.034,0.024 -0.058,0.057 -0.072,0.099l-0,0.324l-0.068,0l-0,-0.521l0.064,-0l-0,0.125c0.018,-0.036 0.042,-0.066 0.071,-0.089c0.03,-0.022 0.062,-0.035 0.095,-0.038c0.006,-0.001 0.012,-0.001 0.017,-0.001c0.005,0 0.009,0 0.013,0.001l-0,0.062Z" style="fill:#555;fill-rule:nonzero;"/></g><g transform="matrix(16.6667,0,0,16.6667,177.93,286.028)"><path d="M0.033,-0.15c-0,-0.033 0.009,-0.06 0.028,-0.084c0.019,-0.024 0.045,-0.042 0.077,-0.055c0.033,-0.013 0.072,-0.02 0.115,-0.02c0.025,0 0.051,0.002 0.079,0.006c0.027,0.004 0.052,0.01 0.073,0.018l0,-0.044c0,-0.044 -0.013,-0.079 -0.039,-0.105c-0.026,-0.026 -0.062,-0.039 -0.108,-0.039c-0.028,-0 -0.055,0.005 -0.082,0.016c-0.027,0.01 -0.056,0.025 -0.085,0.045l-0.026,-0.048c0.034,-0.024 0.067,-0.041 0.1,-0.052c0.033,-0.012 0.066,-0.018 0.1,-0.018c0.064,0 0.115,0.019 0.152,0.055c0.037,0.037 0.056,0.088 0.056,0.152l0,0.241c0,0.009 0.002,0.016 0.006,0.021c0.004,0.004 0.01,0.007 0.019,0.007l-0,0.054c-0.008,0.001 -0.014,0.002 -0.019,0.002c-0.005,0 -0.009,0 -0.012,0c-0.017,-0.001 -0.029,-0.006 -0.038,-0.016c-0.008,-0.01 -0.013,-0.021 -0.014,-0.032l-0.001,-0.038c-0.023,0.03 -0.054,0.053 -0.091,0.069c-0.037,0.017 -0.075,0.025 -0.114,0.025c-0.034,-0 -0.064,-0.007 -0.091,-0.021c-0.026,-0.015 -0.047,-0.034 -0.062,-0.058c-0.016,-0.025 -0.023,-0.052 -0.023,-0.081Zm0.349,0.04c0.008,-0.009 0.013,-0.018 0.017,-0.027c0.004,-0.009 0.006,-0.016 0.006,-0.023l0,-0.076c-0.022,-0.009 -0.046,-0.016 -0.07,-0.02c-0.025,-0.005 -0.049,-0.007 -0.074,-0.007c-0.049,0 -0.088,0.01 -0.118,0.029c-0.03,0.019 -0.045,0.046 -0.045,0.079c-0,0.019 0.005,0.037 0.015,0.055c0.01,0.017 0.025,0.031 0.044,0.042c0.019,0.01 0.042,0.016 0.068,0.016c0.033,-0 0.063,-0.007 0.091,-0.019c0.029,-0.013 0.051,-0.029 0.066,-0.049Z" style="fill:#555;fill-rule:nonzero;"/></g><g transform="matrix(16.6667,0,0,16.6667,187.017,286.028)"><rect x="0.065" y="-0.098" width="0.058" height="0.098" style="fill:#555;fill-rule:nonzero;"/></g><g transform="matrix(16.6667,0,0,16.6667,190.167,286.028)"></g><g transform="matrix(16.6667,0,0,16.6667,194.423,286.028)"><path d="M0.089,-0l0,-0.71l0.3,0c0.03,0 0.059,0.006 0.084,0.019c0.026,0.013 0.048,0.03 0.067,0.051c0.018,0.022 0.033,0.046 0.044,0.072c0.01,0.027 0.015,0.054 0.015,0.081c0,0.034 -0.006,0.066 -0.02,0.096c-0.013,0.03 -0.031,0.056 -0.055,0.076c-0.024,0.021 -0.051,0.035 -0.083,0.041l0.174,0.274l-0.079,-0l-0.167,-0.262l-0.21,-0l-0,0.262l-0.07,-0Zm0.07,-0.324l0.232,-0c0.028,-0 0.053,-0.008 0.073,-0.023c0.021,-0.015 0.037,-0.036 0.048,-0.06c0.011,-0.025 0.017,-0.052 0.017,-0.08c0,-0.028 -0.006,-0.055 -0.02,-0.08c-0.013,-0.024 -0.03,-0.044 -0.052,-0.058c-0.022,-0.015 -0.046,-0.023 -0.072,-0.023l-0.226,0l-0,0.324Z" style="fill:#555;fill-rule:nonzero;"/></g><g transform="matrix(16.6667,0,0,16.6667,205.216,286.028)"><path d="M0.075,-0l-0,-0.521l0.068,-0l-0,0.521l-0.068,-0Zm-0,-0.63l-0,-0.1l0.068,0l-0,0.1l-0.068,0Z" style="fill:#555;fill-rule:nonzero;"/></g><g transform="matrix(16.6667,0,0,16.6667,208.844,286.028)"><path d="M0.284,0.007c-0.036,0 -0.068,-0.007 -0.098,-0.022c-0.03,-0.014 -0.056,-0.034 -0.078,-0.059c-0.021,-0.026 -0.038,-0.054 -0.05,-0.086c-0.012,-0.032 -0.018,-0.065 -0.018,-0.099c0,-0.036 0.006,-0.071 0.018,-0.103c0.012,-0.033 0.028,-0.062 0.05,-0.087c0.021,-0.025 0.047,-0.045 0.076,-0.059c0.03,-0.015 0.062,-0.022 0.098,-0.022c0.045,0 0.083,0.011 0.116,0.034c0.033,0.022 0.061,0.05 0.084,0.084l0,-0.109l0.061,-0l0,0.523c0,0.048 -0.012,0.089 -0.035,0.122c-0.023,0.033 -0.054,0.057 -0.092,0.074c-0.039,0.017 -0.082,0.025 -0.128,0.025c-0.06,0 -0.108,-0.011 -0.144,-0.032c-0.037,-0.021 -0.066,-0.05 -0.09,-0.086l0.042,-0.033c0.021,0.033 0.048,0.057 0.083,0.073c0.034,0.016 0.07,0.024 0.109,0.024c0.034,0 0.065,-0.006 0.093,-0.018c0.028,-0.013 0.051,-0.031 0.068,-0.056c0.017,-0.025 0.026,-0.056 0.026,-0.093l0,-0.103c-0.02,0.033 -0.047,0.059 -0.082,0.079c-0.035,0.019 -0.071,0.029 -0.109,0.029Zm0.019,-0.057c0.02,0 0.04,-0.003 0.059,-0.011c0.019,-0.007 0.037,-0.017 0.053,-0.029c0.016,-0.013 0.029,-0.027 0.04,-0.042c0.011,-0.015 0.017,-0.031 0.02,-0.047l0,-0.161c-0.01,-0.025 -0.024,-0.048 -0.043,-0.068c-0.019,-0.019 -0.04,-0.035 -0.064,-0.046c-0.023,-0.011 -0.048,-0.016 -0.073,-0.016c-0.029,-0 -0.055,0.006 -0.078,0.018c-0.023,0.012 -0.043,0.029 -0.058,0.049c-0.016,0.021 -0.028,0.044 -0.037,0.069c-0.009,0.025 -0.013,0.05 -0.013,0.076c0,0.028 0.005,0.054 0.015,0.079c0.01,0.025 0.024,0.048 0.041,0.067c0.018,0.02 0.039,0.035 0.062,0.046c0.024,0.011 0.049,0.016 0.076,0.016Z" style="fill:#555;fill-rule:nonzero;"/></g><g transform="matrix(16.6667,0,0,16.6667,219.141,286.028)"><path d="M0.3,0.01c-0.038,0 -0.072,-0.007 -0.104,-0.021c-0.032,-0.015 -0.059,-0.035 -0.083,-0.06c-0.023,-0.024 -0.042,-0.053 -0.055,-0.086c-0.013,-0.033 -0.019,-0.068 -0.019,-0.105c-0,-0.049 0.011,-0.094 0.034,-0.134c0.022,-0.04 0.053,-0.073 0.092,-0.097c0.04,-0.025 0.084,-0.037 0.134,-0.037c0.051,0 0.096,0.013 0.134,0.037c0.039,0.025 0.069,0.057 0.091,0.098c0.022,0.04 0.033,0.084 0.033,0.132c0,0.005 0,0.01 -0,0.015c-0,0.005 -0.001,0.009 -0.001,0.012l-0.446,-0c0.003,0.037 0.014,0.07 0.031,0.099c0.018,0.03 0.041,0.053 0.07,0.069c0.028,0.017 0.059,0.026 0.092,0.026c0.034,-0 0.066,-0.009 0.096,-0.026c0.031,-0.018 0.052,-0.04 0.064,-0.068l0.059,0.016c-0.011,0.025 -0.027,0.047 -0.049,0.067c-0.022,0.02 -0.048,0.035 -0.078,0.046c-0.029,0.011 -0.061,0.017 -0.095,0.017Zm-0.192,-0.295l0.385,0c-0.002,-0.038 -0.013,-0.071 -0.031,-0.1c-0.017,-0.029 -0.04,-0.051 -0.069,-0.068c-0.028,-0.016 -0.059,-0.024 -0.093,-0.024c-0.034,-0 -0.065,0.008 -0.093,0.024c-0.028,0.017 -0.051,0.039 -0.068,0.068c-0.018,0.029 -0.028,0.063 -0.031,0.1Z" style="fill:#555;fill-rule:nonzero;"/></g><g transform="matrix(16.6667,0,0,16.6667,228.917,286.028)"><path d="M0.513,-0l-0.068,-0l0,-0.291c0,-0.061 -0.009,-0.106 -0.027,-0.135c-0.018,-0.028 -0.047,-0.042 -0.085,-0.042c-0.026,-0 -0.053,0.006 -0.079,0.019c-0.026,0.014 -0.049,0.031 -0.069,0.053c-0.019,0.023 -0.034,0.048 -0.042,0.077l-0,0.319l-0.068,-0l-0,-0.521l0.062,-0l0,0.118c0.014,-0.025 0.033,-0.048 0.055,-0.067c0.023,-0.019 0.048,-0.033 0.077,-0.044c0.028,-0.011 0.058,-0.016 0.089,-0.016c0.029,0 0.053,0.005 0.073,0.016c0.02,0.011 0.036,0.026 0.048,0.045c0.012,0.02 0.021,0.044 0.026,0.071c0.005,0.028 0.008,0.059 0.008,0.093l0,0.305Z" style="fill:#555;fill-rule:nonzero;"/></g><g transform="matrix(16.6667,0,0,16.6667,238.628,286.028)"><path d="M0.3,0.01c-0.038,0 -0.072,-0.007 -0.104,-0.021c-0.032,-0.015 -0.059,-0.035 -0.083,-0.06c-0.023,-0.024 -0.042,-0.053 -0.055,-0.086c-0.013,-0.033 -0.019,-0.068 -0.019,-0.105c-0,-0.049 0.011,-0.094 0.034,-0.134c0.022,-0.04 0.053,-0.073 0.092,-0.097c0.04,-0.025 0.084,-0.037 0.134,-0.037c0.051,0 0.096,0.013 0.134,0.037c0.039,0.025 0.069,0.057 0.091,0.098c0.022,0.04 0.033,0.084 0.033,0.132c0,0.005 0,0.01 -0,0.015c-0,0.005 -0.001,0.009 -0.001,0.012l-0.446,-0c0.003,0.037 0.014,0.07 0.031,0.099c0.018,0.03 0.041,0.053 0.07,0.069c0.028,0.017 0.059,0.026 0.092,0.026c0.034,-0 0.066,-0.009 0.096,-0.026c0.031,-0.018 0.052,-0.04 0.064,-0.068l0.059,0.016c-0.011,0.025 -0.027,0.047 -0.049,0.067c-0.022,0.02 -0.048,0.035 -0.078,0.046c-0.029,0.011 -0.061,0.017 -0.095,0.017Zm-0.192,-0.295l0.385,0c-0.002,-0.038 -0.013,-0.071 -0.031,-0.1c-0.017,-0.029 -0.04,-0.051 -0.069,-0.068c-0.028,-0.016 -0.059,-0.024 -0.093,-0.024c-0.034,-0 -0.065,0.008 -0.093,0.024c-0.028,0.017 -0.051,0.039 -0.068,0.068c-0.018,0.029 -0.028,0.063 -0.031,0.1Z" style="fill:#555;fill-rule:nonzero;"/></g><g transform="matrix(16.6667,0,0,16.6667,248.404,286.028)"><path d="M0.335,-0.461c-0.045,0.001 -0.085,0.014 -0.12,0.038c-0.034,0.024 -0.058,0.057 -0.072,0.099l-0,0.324l-0.068,0l-0,-0.521l0.064,-0l-0,0.125c0.018,-0.036 0.042,-0.066 0.071,-0.089c0.03,-0.022 0.062,-0.035 0.095,-0.038c0.006,-0.001 0.012,-0.001 0.017,-0.001c0.005,0 0.009,0 0.013,0.001l-0,0.062Z" style="fill:#555;fill-rule:nonzero;"/></g><g transform="matrix(16.6667,0,0,16.6667,254.225,286.028)"><path d="M0.033,-0.15c-0,-0.033 0.009,-0.06 0.028,-0.084c0.019,-0.024 0.045,-0.042 0.077,-0.055c0.033,-0.013 0.072,-0.02 0.115,-0.02c0.025,0 0.051,0.002 0.079,0.006c0.027,0.004 0.052,0.01 0.073,0.018l0,-0.044c0,-0.044 -0.013,-0.079 -0.039,-0.105c-0.026,-0.026 -0.062,-0.039 -0.108,-0.039c-0.028,-0 -0.055,0.005 -0.082,0.016c-0.027,0.01 -0.056,0.025 -0.085,0.045l-0.026,-0.048c0.034,-0.024 0.067,-0.041 0.1,-0.052c0.033,-0.012 0.066,-0.018 0.1,-0.018c0.064,0 0.115,0.019 0.152,0.055c0.037,0.037 0.056,0.088 0.056,0.152l0,0.241c0,0.009 0.002,0.016 0.006,0.021c0.004,0.004 0.01,0.007 0.019,0.007l-0,0.054c-0.008,0.001 -0.014,0.002 -0.019,0.002c-0.005,0 -0.009,0 -0.012,0c-0.017,-0.001 -0.029,-0.006 -0.038,-0.016c-0.008,-0.01 -0.013,-0.021 -0.014,-0.032l-0.001,-0.038c-0.023,0.03 -0.054,0.053 -0.091,0.069c-0.037,0.017 -0.075,0.025 -0.114,0.025c-0.034,-0 -0.064,-0.007 -0.091,-0.021c-0.026,-0.015 -0.047,-0.034 -0.062,-0.058c-0.016,-0.025 -0.023,-0.052 -0.023,-0.081Zm0.349,0.04c0.008,-0.009 0.013,-0.018 0.017,-0.027c0.004,-0.009 0.006,-0.016 0.006,-0.023l0,-0.076c-0.022,-0.009 -0.046,-0.016 -0.07,-0.02c-0.025,-0.005 -0.049,-0.007 -0.074,-0.007c-0.049,0 -0.088,0.01 -0.118,0.029c-0.03,0.019 -0.045,0.046 -0.045,0.079c-0,0.019 0.005,0.037 0.015,0.055c0.01,0.017 0.025,0.031 0.044,0.042c0.019,0.01 0.042,0.016 0.068,0.016c0.033,-0 0.063,-0.007 0.091,-0.019c0.029,-0.013 0.051,-0.029 0.066,-0.049Z" style="fill:#555;fill-rule:nonzero;"/></g><g transform="matrix(16.6667,0,0,16.6667,263.311,286.028)"><rect x="0.065" y="-0.098" width="0.058" height="0.098" style="fill:#555;fill-rule:nonzero;"/></g><g transform="matrix(16.6667,0,0,16.6667,266.462,286.028)"></g><g transform="matrix(16.6667,0,0,16.6667,270.718,286.028)"><path d="M0.042,-0.36c-0,-0.043 0.007,-0.086 0.022,-0.127c0.015,-0.042 0.037,-0.08 0.066,-0.114c0.029,-0.035 0.064,-0.062 0.106,-0.082c0.042,-0.021 0.089,-0.031 0.143,-0.031c0.063,0 0.117,0.014 0.162,0.043c0.045,0.029 0.078,0.067 0.1,0.112l-0.055,0.034c-0.016,-0.031 -0.035,-0.056 -0.058,-0.075c-0.023,-0.018 -0.048,-0.031 -0.074,-0.039c-0.027,-0.008 -0.053,-0.012 -0.079,-0.012c-0.043,0 -0.08,0.009 -0.113,0.026c-0.033,0.016 -0.06,0.039 -0.083,0.068c-0.022,0.028 -0.039,0.06 -0.05,0.095c-0.012,0.035 -0.017,0.07 -0.017,0.106c-0,0.039 0.006,0.077 0.02,0.113c0.013,0.036 0.032,0.068 0.056,0.095c0.024,0.028 0.052,0.05 0.084,0.066c0.033,0.017 0.068,0.025 0.106,0.025c0.026,-0 0.054,-0.005 0.082,-0.014c0.028,-0.009 0.054,-0.024 0.078,-0.043c0.025,-0.019 0.044,-0.045 0.059,-0.075l0.058,0.03c-0.015,0.035 -0.037,0.065 -0.068,0.09c-0.031,0.025 -0.065,0.043 -0.102,0.056c-0.038,0.013 -0.075,0.019 -0.111,0.019c-0.049,0 -0.093,-0.01 -0.134,-0.032c-0.04,-0.021 -0.075,-0.048 -0.105,-0.083c-0.03,-0.035 -0.053,-0.075 -0.069,-0.118c-0.016,-0.044 -0.024,-0.088 -0.024,-0.133Z" style="fill:#555;fill-rule:nonzero;"/></g><g transform="matrix(16.6667,0,0,16.6667,282.158,286.028)"><path d="M0.297,0.01c-0.038,0 -0.072,-0.007 -0.104,-0.021c-0.031,-0.015 -0.058,-0.034 -0.081,-0.059c-0.023,-0.025 -0.041,-0.054 -0.054,-0.086c-0.013,-0.033 -0.019,-0.067 -0.019,-0.103c-0,-0.037 0.006,-0.072 0.019,-0.104c0.013,-0.033 0.031,-0.062 0.054,-0.087c0.023,-0.025 0.05,-0.044 0.082,-0.058c0.032,-0.015 0.066,-0.022 0.104,-0.022c0.037,0 0.071,0.007 0.103,0.022c0.031,0.014 0.058,0.033 0.082,0.058c0.023,0.025 0.041,0.054 0.054,0.087c0.013,0.032 0.019,0.067 0.019,0.104c0,0.036 -0.006,0.07 -0.019,0.103c-0.012,0.032 -0.03,0.061 -0.054,0.086c-0.023,0.025 -0.05,0.044 -0.082,0.059c-0.031,0.014 -0.066,0.021 -0.104,0.021Zm-0.189,-0.268c0,0.038 0.009,0.074 0.026,0.105c0.017,0.032 0.04,0.057 0.068,0.076c0.029,0.018 0.06,0.027 0.095,0.027c0.035,0 0.066,-0.009 0.095,-0.028c0.029,-0.019 0.052,-0.044 0.069,-0.076c0.017,-0.033 0.026,-0.068 0.026,-0.106c-0,-0.039 -0.009,-0.074 -0.026,-0.106c-0.017,-0.032 -0.04,-0.057 -0.069,-0.076c-0.028,-0.019 -0.06,-0.028 -0.095,-0.028c-0.034,-0 -0.066,0.009 -0.095,0.029c-0.028,0.019 -0.051,0.044 -0.068,0.076c-0.017,0.032 -0.026,0.068 -0.026,0.107Z" style="fill:#555;fill-rule:nonzero;"/></g><g transform="matrix(16.6667,0,0,16.6667,292.077,286.028)"><path d="M0.513,-0l-0.068,-0l0,-0.291c0,-0.061 -0.009,-0.106 -0.027,-0.135c-0.018,-0.028 -0.047,-0.042 -0.085,-0.042c-0.026,-0 -0.053,0.006 -0.079,0.019c-0.026,0.014 -0.049,0.031 -0.069,0.053c-0.019,0.023 -0.034,0.048 -0.042,0.077l-0,0.319l-0.068,-0l-0,-0.521l0.062,-0l0,0.118c0.014,-0.025 0.033,-0.048 0.055,-0.067c0.023,-0.019 0.048,-0.033 0.077,-0.044c0.028,-0.011 0.058,-0.016 0.089,-0.016c0.029,0 0.053,0.005 0.073,0.016c0.02,0.011 0.036,0.026 0.048,0.045c0.012,0.02 0.021,0.044 0.026,0.071c0.005,0.028 0.008,0.059 0.008,0.093l0,0.305Z" style="fill:#555;fill-rule:nonzero;"/></g><g transform="matrix(16.6667,0,0,16.6667,301.788,286.028)"><path d="M0.04,-0.259c-0,-0.049 0.01,-0.094 0.03,-0.135c0.021,-0.041 0.049,-0.074 0.085,-0.099c0.036,-0.024 0.077,-0.037 0.123,-0.037c0.043,0 0.082,0.012 0.117,0.035c0.034,0.023 0.061,0.051 0.08,0.083l0,-0.318l0.068,0l0,0.648c0,0.009 0.002,0.016 0.006,0.021c0.004,0.004 0.01,0.007 0.018,0.007l0,0.054c-0.013,0.002 -0.024,0.003 -0.031,0.002c-0.014,-0.001 -0.027,-0.007 -0.037,-0.017c-0.01,-0.011 -0.016,-0.022 -0.016,-0.035l0,-0.051c-0.021,0.034 -0.049,0.061 -0.084,0.081c-0.035,0.02 -0.072,0.03 -0.11,0.03c-0.036,-0 -0.069,-0.007 -0.1,-0.022c-0.03,-0.015 -0.057,-0.035 -0.079,-0.06c-0.022,-0.025 -0.04,-0.054 -0.052,-0.086c-0.012,-0.033 -0.018,-0.066 -0.018,-0.101Zm0.435,0.08l0,-0.161c-0.009,-0.024 -0.023,-0.046 -0.042,-0.066c-0.019,-0.019 -0.041,-0.035 -0.065,-0.047c-0.025,-0.011 -0.049,-0.017 -0.073,-0.017c-0.028,-0 -0.053,0.006 -0.076,0.018c-0.023,0.011 -0.042,0.027 -0.059,0.047c-0.016,0.02 -0.029,0.043 -0.037,0.068c-0.009,0.025 -0.013,0.051 -0.013,0.078c-0,0.028 0.005,0.055 0.014,0.08c0.01,0.025 0.024,0.048 0.042,0.067c0.018,0.02 0.038,0.035 0.062,0.046c0.023,0.011 0.048,0.016 0.076,0.016c0.017,0 0.035,-0.003 0.054,-0.01c0.018,-0.006 0.036,-0.016 0.053,-0.027c0.017,-0.012 0.031,-0.026 0.043,-0.042c0.011,-0.016 0.018,-0.032 0.021,-0.05Z" style="fill:#555;fill-rule:nonzero;"/></g><g transform="matrix(16.6667,0,0,16.6667,312.149,286.028)"><path d="M0.075,-0l-0,-0.521l0.068,-0l-0,0.521l-0.068,-0Zm-0,-0.63l-0,-0.1l0.068,0l-0,0.1l-0.068,0Z" style="fill:#555;fill-rule:nonzero;"/></g><g transform="matrix(16.6667,0,0,16.6667,315.776,286.028)"><path d="M0.23,-0l-0.211,-0.521l0.071,-0l0.178,0.453l0.179,-0.453l0.067,-0l-0.211,0.521l-0.073,-0Z" style="fill:#555;fill-rule:nonzero;"/></g><g transform="matrix(16.6667,0,0,16.6667,324.666,286.028)"><path d="M0.075,-0l-0,-0.521l0.068,-0l-0,0.521l-0.068,-0Zm-0,-0.63l-0,-0.1l0.068,0l-0,0.1l-0.068,0Z" style="fill:#555;fill-rule:nonzero;"/></g><g transform="matrix(16.6667,0,0,16.6667,328.293,286.028)"><path d="M0.04,-0.259c-0,-0.049 0.01,-0.094 0.03,-0.135c0.021,-0.041 0.049,-0.074 0.085,-0.099c0.036,-0.024 0.077,-0.037 0.123,-0.037c0.043,0 0.082,0.012 0.117,0.035c0.034,0.023 0.061,0.051 0.08,0.083l0,-0.318l0.068,0l0,0.648c0,0.009 0.002,0.016 0.006,0.021c0.004,0.004 0.01,0.007 0.018,0.007l0,0.054c-0.013,0.002 -0.024,0.003 -0.031,0.002c-0.014,-0.001 -0.027,-0.007 -0.037,-0.017c-0.01,-0.011 -0.016,-0.022 -0.016,-0.035l0,-0.051c-0.021,0.034 -0.049,0.061 -0.084,0.081c-0.035,0.02 -0.072,0.03 -0.11,0.03c-0.036,-0 -0.069,-0.007 -0.1,-0.022c-0.03,-0.015 -0.057,-0.035 -0.079,-0.06c-0.022,-0.025 -0.04,-0.054 -0.052,-0.086c-0.012,-0.033 -0.018,-0.066 -0.018,-0.101Zm0.435,0.08l0,-0.161c-0.009,-0.024 -0.023,-0.046 -0.042,-0.066c-0.019,-0.019 -0.041,-0.035 -0.065,-0.047c-0.025,-0.011 -0.049,-0.017 -0.073,-0.017c-0.028,-0 -0.053,0.006 -0.076,0.018c-0.023,0.011 -0.042,0.027 -0.059,0.047c-0.016,0.02 -0.029,0.043 -0.037,0.068c-0.009,0.025 -0.013,0.051 -0.013,0.078c-0,0.028 0.005,0.055 0.014,0.08c0.01,0.025 0.024,0.048 0.042,0.067c0.018,0.02 0.038,0.035 0.062,0.046c0.023,0.011 0.048,0.016 0.076,0.016c0.017,0 0.035,-0.003 0.054,-0.01c0.018,-0.006 0.036,-0.016 0.053,-0.027c0.017,-0.012 0.031,-0.026 0.043,-0.042c0.011,-0.016 0.018,-0.032 0.021,-0.05Z" style="fill:#555;fill-rule:nonzero;"/></g><g transform="matrix(16.6667,0,0,16.6667,338.654,286.028)"><path d="M0.075,-0l-0,-0.521l0.068,-0l-0,0.521l-0.068,-0Zm-0,-0.63l-0,-0.1l0.068,0l-0,0.1l-0.068,0Z" style="fill:#555;fill-rule:nonzero;"/></g><g transform="matrix(16.6667,0,0,16.6667,342.281,286.028)"><rect x="0.065" y="-0.098" width="0.058" height="0.098" style="fill:#555;fill-rule:nonzero;"/></g><g transform="matrix(16.6667,0,0,16.6667,345.432,286.028)"></g></svg>